<mxfile host="app.diagrams.net" modified="2021-09-15T00:24:35.318Z" agent="5.0 (Windows NT 10.0; Win64; x64) AppleWebKit/537.36 (KHTML, like Gecko) Chrome/93.0.4577.63 Safari/537.36" etag="rUYiovEh8wNcFca3TAuz" version="14.9.2" type="github">
  <diagram id="C5RBs43oDa-KdzZeNtuy" name="Page-1">
    <mxGraphModel dx="1961" dy="1120" grid="1" gridSize="10" guides="1" tooltips="1" connect="1" arrows="1" fold="1" page="1" pageScale="1" pageWidth="827" pageHeight="1169" math="0" shadow="0">
      <root>
        <mxCell id="WIyWlLk6GJQsqaUBKTNV-0" />
        <mxCell id="WIyWlLk6GJQsqaUBKTNV-1" parent="WIyWlLk6GJQsqaUBKTNV-0" />
        <mxCell id="-ThPF_5Hyqm9Y2Q6VHt7-23" value="" style="edgeStyle=orthogonalEdgeStyle;rounded=0;orthogonalLoop=1;jettySize=auto;html=1;" edge="1" parent="WIyWlLk6GJQsqaUBKTNV-1" source="-ThPF_5Hyqm9Y2Q6VHt7-0" target="-ThPF_5Hyqm9Y2Q6VHt7-22">
          <mxGeometry relative="1" as="geometry" />
        </mxCell>
        <mxCell id="-ThPF_5Hyqm9Y2Q6VHt7-0" value="" style="ellipse;whiteSpace=wrap;html=1;" vertex="1" parent="WIyWlLk6GJQsqaUBKTNV-1">
          <mxGeometry x="100" y="30" width="120" height="80" as="geometry" />
        </mxCell>
        <mxCell id="-ThPF_5Hyqm9Y2Q6VHt7-10" style="edgeStyle=orthogonalEdgeStyle;rounded=0;orthogonalLoop=1;jettySize=auto;html=1;" edge="1" parent="WIyWlLk6GJQsqaUBKTNV-1" source="-ThPF_5Hyqm9Y2Q6VHt7-2" target="-ThPF_5Hyqm9Y2Q6VHt7-6">
          <mxGeometry relative="1" as="geometry" />
        </mxCell>
        <mxCell id="-ThPF_5Hyqm9Y2Q6VHt7-17" value="" style="edgeStyle=orthogonalEdgeStyle;rounded=0;orthogonalLoop=1;jettySize=auto;html=1;" edge="1" parent="WIyWlLk6GJQsqaUBKTNV-1" source="-ThPF_5Hyqm9Y2Q6VHt7-2" target="-ThPF_5Hyqm9Y2Q6VHt7-16">
          <mxGeometry relative="1" as="geometry" />
        </mxCell>
        <mxCell id="-ThPF_5Hyqm9Y2Q6VHt7-2" value="libreria Ok?" style="rhombus;whiteSpace=wrap;html=1;" vertex="1" parent="WIyWlLk6GJQsqaUBKTNV-1">
          <mxGeometry x="190" y="120" width="80" height="80" as="geometry" />
        </mxCell>
        <mxCell id="-ThPF_5Hyqm9Y2Q6VHt7-12" style="edgeStyle=orthogonalEdgeStyle;rounded=0;orthogonalLoop=1;jettySize=auto;html=1;entryX=0.5;entryY=0;entryDx=0;entryDy=0;exitX=1;exitY=0.5;exitDx=0;exitDy=0;" edge="1" parent="WIyWlLk6GJQsqaUBKTNV-1" source="-ThPF_5Hyqm9Y2Q6VHt7-4" target="-ThPF_5Hyqm9Y2Q6VHt7-5">
          <mxGeometry relative="1" as="geometry" />
        </mxCell>
        <mxCell id="-ThPF_5Hyqm9Y2Q6VHt7-28" style="edgeStyle=orthogonalEdgeStyle;rounded=0;orthogonalLoop=1;jettySize=auto;html=1;" edge="1" parent="WIyWlLk6GJQsqaUBKTNV-1" source="-ThPF_5Hyqm9Y2Q6VHt7-4" target="-ThPF_5Hyqm9Y2Q6VHt7-27">
          <mxGeometry relative="1" as="geometry" />
        </mxCell>
        <mxCell id="-ThPF_5Hyqm9Y2Q6VHt7-4" value="canal ok?" style="rhombus;whiteSpace=wrap;html=1;" vertex="1" parent="WIyWlLk6GJQsqaUBKTNV-1">
          <mxGeometry x="323" y="330" width="80" height="80" as="geometry" />
        </mxCell>
        <mxCell id="-ThPF_5Hyqm9Y2Q6VHt7-14" value="" style="edgeStyle=orthogonalEdgeStyle;rounded=0;orthogonalLoop=1;jettySize=auto;html=1;" edge="1" parent="WIyWlLk6GJQsqaUBKTNV-1" source="-ThPF_5Hyqm9Y2Q6VHt7-5" target="-ThPF_5Hyqm9Y2Q6VHt7-13">
          <mxGeometry relative="1" as="geometry" />
        </mxCell>
        <mxCell id="-ThPF_5Hyqm9Y2Q6VHt7-31" style="edgeStyle=orthogonalEdgeStyle;rounded=0;orthogonalLoop=1;jettySize=auto;html=1;" edge="1" parent="WIyWlLk6GJQsqaUBKTNV-1" source="-ThPF_5Hyqm9Y2Q6VHt7-5" target="-ThPF_5Hyqm9Y2Q6VHt7-30">
          <mxGeometry relative="1" as="geometry" />
        </mxCell>
        <mxCell id="-ThPF_5Hyqm9Y2Q6VHt7-5" value="usuario ok?" style="rhombus;whiteSpace=wrap;html=1;" vertex="1" parent="WIyWlLk6GJQsqaUBKTNV-1">
          <mxGeometry x="390" y="410" width="80" height="80" as="geometry" />
        </mxCell>
        <mxCell id="-ThPF_5Hyqm9Y2Q6VHt7-7" style="edgeStyle=orthogonalEdgeStyle;rounded=0;orthogonalLoop=1;jettySize=auto;html=1;entryX=0.5;entryY=0;entryDx=0;entryDy=0;" edge="1" parent="WIyWlLk6GJQsqaUBKTNV-1" source="-ThPF_5Hyqm9Y2Q6VHt7-6" target="-ThPF_5Hyqm9Y2Q6VHt7-44">
          <mxGeometry relative="1" as="geometry">
            <mxPoint x="489" y="260" as="targetPoint" />
          </mxGeometry>
        </mxCell>
        <mxCell id="-ThPF_5Hyqm9Y2Q6VHt7-11" style="edgeStyle=orthogonalEdgeStyle;rounded=0;orthogonalLoop=1;jettySize=auto;html=1;exitX=0.5;exitY=1;exitDx=0;exitDy=0;entryX=0.5;entryY=0;entryDx=0;entryDy=0;" edge="1" parent="WIyWlLk6GJQsqaUBKTNV-1" source="-ThPF_5Hyqm9Y2Q6VHt7-6" target="-ThPF_5Hyqm9Y2Q6VHt7-4">
          <mxGeometry relative="1" as="geometry" />
        </mxCell>
        <mxCell id="-ThPF_5Hyqm9Y2Q6VHt7-6" value="bitacoriza entrada y recupera id" style="rounded=0;whiteSpace=wrap;html=1;" vertex="1" parent="WIyWlLk6GJQsqaUBKTNV-1">
          <mxGeometry x="303" y="230" width="120" height="60" as="geometry" />
        </mxCell>
        <mxCell id="-ThPF_5Hyqm9Y2Q6VHt7-33" style="edgeStyle=orthogonalEdgeStyle;rounded=0;orthogonalLoop=1;jettySize=auto;html=1;" edge="1" parent="WIyWlLk6GJQsqaUBKTNV-1" source="-ThPF_5Hyqm9Y2Q6VHt7-13">
          <mxGeometry relative="1" as="geometry">
            <mxPoint x="580" y="610" as="targetPoint" />
          </mxGeometry>
        </mxCell>
        <mxCell id="-ThPF_5Hyqm9Y2Q6VHt7-13" value="Proceso&lt;br&gt;" style="whiteSpace=wrap;html=1;" vertex="1" parent="WIyWlLk6GJQsqaUBKTNV-1">
          <mxGeometry x="520" y="510" width="120" height="60" as="geometry" />
        </mxCell>
        <mxCell id="-ThPF_5Hyqm9Y2Q6VHt7-18" style="edgeStyle=orthogonalEdgeStyle;rounded=0;orthogonalLoop=1;jettySize=auto;html=1;entryX=0.5;entryY=0;entryDx=0;entryDy=0;" edge="1" parent="WIyWlLk6GJQsqaUBKTNV-1" source="-ThPF_5Hyqm9Y2Q6VHt7-16" target="-ThPF_5Hyqm9Y2Q6VHt7-21">
          <mxGeometry relative="1" as="geometry">
            <mxPoint x="420" y="772" as="targetPoint" />
            <Array as="points">
              <mxPoint x="230" y="772" />
              <mxPoint x="270" y="772" />
              <mxPoint x="270" y="870" />
              <mxPoint x="325" y="870" />
            </Array>
          </mxGeometry>
        </mxCell>
        <mxCell id="-ThPF_5Hyqm9Y2Q6VHt7-16" value="EstatusApsi:ERROR&lt;br&gt;mensaje:ERROR&lt;br&gt;descripcion:Libreria no recibida" style="whiteSpace=wrap;html=1;" vertex="1" parent="WIyWlLk6GJQsqaUBKTNV-1">
          <mxGeometry x="170" y="290" width="120" height="60" as="geometry" />
        </mxCell>
        <mxCell id="-ThPF_5Hyqm9Y2Q6VHt7-43" value="" style="edgeStyle=orthogonalEdgeStyle;rounded=0;orthogonalLoop=1;jettySize=auto;html=1;" edge="1" parent="WIyWlLk6GJQsqaUBKTNV-1" source="-ThPF_5Hyqm9Y2Q6VHt7-21" target="-ThPF_5Hyqm9Y2Q6VHt7-42">
          <mxGeometry relative="1" as="geometry" />
        </mxCell>
        <mxCell id="-ThPF_5Hyqm9Y2Q6VHt7-21" value="llena json&lt;br&gt;.put(&#39;mensaje&#39;, mensaje)&lt;br&gt;.put&#39;agenda&#39;,agenda)&lt;br&gt;.PUT(&#39;DESCRIPCION&#39;, DESCRIPCion)" style="rounded=0;whiteSpace=wrap;html=1;" vertex="1" parent="WIyWlLk6GJQsqaUBKTNV-1">
          <mxGeometry x="170" y="880" width="310" height="60" as="geometry" />
        </mxCell>
        <mxCell id="-ThPF_5Hyqm9Y2Q6VHt7-22" value="declaramos variables&lt;br&gt;agenda=&quot;&quot;&lt;br&gt;mensaje=&quot;&quot;&lt;br&gt;descriocion=&quot;&quot;&lt;br&gt;estas api&quot;EN PROCESO" style="whiteSpace=wrap;html=1;" vertex="1" parent="WIyWlLk6GJQsqaUBKTNV-1">
          <mxGeometry x="300" y="40" width="230" height="80" as="geometry" />
        </mxCell>
        <mxCell id="-ThPF_5Hyqm9Y2Q6VHt7-29" style="edgeStyle=orthogonalEdgeStyle;rounded=0;orthogonalLoop=1;jettySize=auto;html=1;entryX=0.5;entryY=0;entryDx=0;entryDy=0;" edge="1" parent="WIyWlLk6GJQsqaUBKTNV-1" source="-ThPF_5Hyqm9Y2Q6VHt7-27" target="-ThPF_5Hyqm9Y2Q6VHt7-21">
          <mxGeometry relative="1" as="geometry">
            <mxPoint x="363" y="792" as="targetPoint" />
          </mxGeometry>
        </mxCell>
        <mxCell id="-ThPF_5Hyqm9Y2Q6VHt7-27" value="&lt;span&gt;EstatusApsi:ERROR&lt;/span&gt;&lt;br&gt;&lt;span&gt;mensaje:ERROR&lt;/span&gt;&lt;br&gt;&lt;span&gt;descripcion:canal no recibida&lt;/span&gt;" style="rounded=0;whiteSpace=wrap;html=1;" vertex="1" parent="WIyWlLk6GJQsqaUBKTNV-1">
          <mxGeometry x="260" y="490" width="120" height="60" as="geometry" />
        </mxCell>
        <mxCell id="-ThPF_5Hyqm9Y2Q6VHt7-32" style="edgeStyle=orthogonalEdgeStyle;rounded=0;orthogonalLoop=1;jettySize=auto;html=1;entryX=0.5;entryY=0;entryDx=0;entryDy=0;" edge="1" parent="WIyWlLk6GJQsqaUBKTNV-1" source="-ThPF_5Hyqm9Y2Q6VHt7-30" target="-ThPF_5Hyqm9Y2Q6VHt7-21">
          <mxGeometry relative="1" as="geometry" />
        </mxCell>
        <mxCell id="-ThPF_5Hyqm9Y2Q6VHt7-30" value="&lt;span&gt;EstatusApsi:ERROR&lt;/span&gt;&lt;br&gt;&lt;span&gt;mensaje:ERROR&lt;/span&gt;&lt;br&gt;&lt;span&gt;descripcion:usuario no recibida&lt;/span&gt;" style="rounded=0;whiteSpace=wrap;html=1;" vertex="1" parent="WIyWlLk6GJQsqaUBKTNV-1">
          <mxGeometry x="360" y="570" width="120" height="60" as="geometry" />
        </mxCell>
        <mxCell id="-ThPF_5Hyqm9Y2Q6VHt7-36" style="edgeStyle=orthogonalEdgeStyle;rounded=0;orthogonalLoop=1;jettySize=auto;html=1;entryX=0.5;entryY=0;entryDx=0;entryDy=0;exitX=0;exitY=0.5;exitDx=0;exitDy=0;" edge="1" parent="WIyWlLk6GJQsqaUBKTNV-1" source="-ThPF_5Hyqm9Y2Q6VHt7-34" target="-ThPF_5Hyqm9Y2Q6VHt7-35">
          <mxGeometry relative="1" as="geometry" />
        </mxCell>
        <mxCell id="-ThPF_5Hyqm9Y2Q6VHt7-39" value="" style="edgeStyle=orthogonalEdgeStyle;rounded=0;orthogonalLoop=1;jettySize=auto;html=1;" edge="1" parent="WIyWlLk6GJQsqaUBKTNV-1" source="-ThPF_5Hyqm9Y2Q6VHt7-34" target="-ThPF_5Hyqm9Y2Q6VHt7-38">
          <mxGeometry relative="1" as="geometry" />
        </mxCell>
        <mxCell id="-ThPF_5Hyqm9Y2Q6VHt7-34" value="respondio" style="rhombus;whiteSpace=wrap;html=1;" vertex="1" parent="WIyWlLk6GJQsqaUBKTNV-1">
          <mxGeometry x="540" y="610" width="80" height="80" as="geometry" />
        </mxCell>
        <mxCell id="-ThPF_5Hyqm9Y2Q6VHt7-37" style="edgeStyle=orthogonalEdgeStyle;rounded=0;orthogonalLoop=1;jettySize=auto;html=1;" edge="1" parent="WIyWlLk6GJQsqaUBKTNV-1" source="-ThPF_5Hyqm9Y2Q6VHt7-35" target="-ThPF_5Hyqm9Y2Q6VHt7-21">
          <mxGeometry relative="1" as="geometry" />
        </mxCell>
        <mxCell id="-ThPF_5Hyqm9Y2Q6VHt7-35" value="&lt;span&gt;EstatusApsi:ERROR&lt;/span&gt;&lt;br&gt;&lt;span&gt;mensaje:ERROR&lt;/span&gt;&lt;br&gt;&lt;span&gt;descripcion:no pudo obtener informacion&lt;/span&gt;" style="rounded=0;whiteSpace=wrap;html=1;" vertex="1" parent="WIyWlLk6GJQsqaUBKTNV-1">
          <mxGeometry x="440" y="700" width="120" height="60" as="geometry" />
        </mxCell>
        <mxCell id="-ThPF_5Hyqm9Y2Q6VHt7-41" style="edgeStyle=orthogonalEdgeStyle;rounded=0;orthogonalLoop=1;jettySize=auto;html=1;" edge="1" parent="WIyWlLk6GJQsqaUBKTNV-1" source="-ThPF_5Hyqm9Y2Q6VHt7-38" target="-ThPF_5Hyqm9Y2Q6VHt7-21">
          <mxGeometry relative="1" as="geometry">
            <Array as="points">
              <mxPoint x="800" y="850" />
              <mxPoint x="325" y="850" />
            </Array>
          </mxGeometry>
        </mxCell>
        <mxCell id="-ThPF_5Hyqm9Y2Q6VHt7-38" value="agneda= respuesta.get(&#39;wfttipoag&#39;)&lt;br&gt;EstatusAi=&#39;EXITO&#39;&lt;br&gt;mensaje=&#39;EXITO&#39;&lt;br&gt;descripcion=&quot;&quot;;" style="whiteSpace=wrap;html=1;" vertex="1" parent="WIyWlLk6GJQsqaUBKTNV-1">
          <mxGeometry x="680" y="620" width="240" height="70" as="geometry" />
        </mxCell>
        <mxCell id="-ThPF_5Hyqm9Y2Q6VHt7-45" value="" style="edgeStyle=orthogonalEdgeStyle;rounded=0;orthogonalLoop=1;jettySize=auto;html=1;" edge="1" parent="WIyWlLk6GJQsqaUBKTNV-1" source="-ThPF_5Hyqm9Y2Q6VHt7-42" target="-ThPF_5Hyqm9Y2Q6VHt7-44">
          <mxGeometry relative="1" as="geometry" />
        </mxCell>
        <mxCell id="-ThPF_5Hyqm9Y2Q6VHt7-47" value="" style="edgeStyle=orthogonalEdgeStyle;rounded=0;orthogonalLoop=1;jettySize=auto;html=1;" edge="1" parent="WIyWlLk6GJQsqaUBKTNV-1" source="-ThPF_5Hyqm9Y2Q6VHt7-42" target="-ThPF_5Hyqm9Y2Q6VHt7-46">
          <mxGeometry relative="1" as="geometry" />
        </mxCell>
        <mxCell id="-ThPF_5Hyqm9Y2Q6VHt7-42" value="bitacrozar salida" style="whiteSpace=wrap;html=1;rounded=0;" vertex="1" parent="WIyWlLk6GJQsqaUBKTNV-1">
          <mxGeometry x="265" y="1020" width="120" height="60" as="geometry" />
        </mxCell>
        <mxCell id="-ThPF_5Hyqm9Y2Q6VHt7-44" value="" style="shape=cylinder;whiteSpace=wrap;html=1;boundedLbl=1;backgroundOutline=1;rounded=0;" vertex="1" parent="WIyWlLk6GJQsqaUBKTNV-1">
          <mxGeometry x="1010" y="680" width="60" height="80" as="geometry" />
        </mxCell>
        <mxCell id="-ThPF_5Hyqm9Y2Q6VHt7-46" value="" style="ellipse;whiteSpace=wrap;html=1;rounded=0;" vertex="1" parent="WIyWlLk6GJQsqaUBKTNV-1">
          <mxGeometry x="270" y="1100" width="120" height="60" as="geometry" />
        </mxCell>
      </root>
    </mxGraphModel>
  </diagram>
</mxfile>
